<svg width="133" height="157" viewBox="0 0 133 157" fill="none" xmlns="http://www.w3.org/2000/svg">
<g filter="url(#filter0_bdd_79_376)">
<path d="M46.3906 82.1751L58.7236 59.6776C59.0017 59.1703 59.5342 58.855 60.1127 58.855H71.0445C72.2361 58.855 73.0011 60.1212 72.4468 61.176L65.6001 74.2054C65.0458 75.2603 65.8108 76.5265 67.0024 76.5265H73.3519C74.7224 76.5265 75.4463 78.1489 74.5308 79.1688L51.4189 104.917C50.2492 106.221 48.142 104.943 48.7567 103.303L54.9955 86.661C55.3837 85.6254 54.6181 84.5207 53.5121 84.5207H47.7797C46.5758 84.5207 45.8119 83.2308 46.3906 82.1751Z" fill="url(#paint0_linear_79_376)"/>
<path d="M47.0852 82.5558L59.4181 60.0584C59.5572 59.8047 59.8235 59.6471 60.1127 59.6471H71.0445C71.6403 59.6471 72.0228 60.2802 71.7456 60.8076L64.8989 73.837C64.0674 75.4193 65.2149 77.3186 67.0024 77.3186H73.3519C74.0371 77.3186 74.3991 78.1298 73.9413 78.6397L50.8295 104.388C50.2446 105.04 49.191 104.401 49.4983 103.581L55.7372 86.939C56.3195 85.3856 55.1711 83.7287 53.5121 83.7287H47.7797C47.1778 83.7287 46.7958 83.0837 47.0852 82.5558Z" stroke="url(#paint1_linear_79_376)" stroke-width="1.58416"/>
</g>
<g filter="url(#filter1_bd_79_376)">
<mask id="path-3-inside-1_79_376" fill="white">
<path fill-rule="evenodd" clip-rule="evenodd" d="M78.7316 73.1597C78.7785 73.1602 78.8254 73.1605 78.8723 73.1605C85.555 73.1605 90.9724 67.7604 90.9724 61.099C90.9724 54.4376 85.555 49.0375 78.8723 49.0375C78.8254 49.0375 78.7785 49.0377 78.7316 49.0383V49.0375H75.6058C75.7187 48.2121 75.777 47.3693 75.777 46.513C75.777 36.2886 67.462 28 57.2048 28C46.9477 28 38.6327 36.2886 38.6327 46.513C38.6327 47.4778 38.7067 48.4253 38.8494 49.3502C37.9661 49.1456 37.0458 49.0375 36.1 49.0375C29.4174 49.0375 24 54.4376 24 61.099C24 67.7604 29.4174 73.1605 36.1 73.1605C36.1472 73.1605 36.1944 73.1602 36.2414 73.1597L36.2408 73.1605H78.7316V73.1597Z"/>
</mask>
<path fill-rule="evenodd" clip-rule="evenodd" d="M78.7316 73.1597C78.7785 73.1602 78.8254 73.1605 78.8723 73.1605C85.555 73.1605 90.9724 67.7604 90.9724 61.099C90.9724 54.4376 85.555 49.0375 78.8723 49.0375C78.8254 49.0375 78.7785 49.0377 78.7316 49.0383V49.0375H75.6058C75.7187 48.2121 75.777 47.3693 75.777 46.513C75.777 36.2886 67.462 28 57.2048 28C46.9477 28 38.6327 36.2886 38.6327 46.513C38.6327 47.4778 38.7067 48.4253 38.8494 49.3502C37.9661 49.1456 37.0458 49.0375 36.1 49.0375C29.4174 49.0375 24 54.4376 24 61.099C24 67.7604 29.4174 73.1605 36.1 73.1605C36.1472 73.1605 36.1944 73.1602 36.2414 73.1597L36.2408 73.1605H78.7316V73.1597Z" fill="url(#paint2_linear_79_376)" shape-rendering="crispEdges"/>
<path d="M78.7316 73.1597L78.7496 71.5756C78.3264 71.5708 77.9188 71.7356 77.6178 72.0332C77.3169 72.3308 77.1475 72.7364 77.1475 73.1597H78.7316ZM78.7316 49.0383H77.1475C77.1475 49.4615 77.3169 49.8672 77.6179 50.1648C77.9188 50.4624 78.3264 50.6271 78.7496 50.6223L78.7316 49.0383ZM78.7316 49.0375H80.3158C80.3158 48.1626 79.6065 47.4533 78.7316 47.4533V49.0375ZM75.6058 49.0375L74.0362 48.8228C73.9742 49.2762 74.1113 49.7342 74.4121 50.079C74.713 50.4238 75.1482 50.6216 75.6058 50.6216V49.0375ZM38.8494 49.3502L38.492 50.8935C39.0041 51.0121 39.5418 50.8689 39.9271 50.5113C40.3124 50.1537 40.4952 49.6282 40.415 49.1086L38.8494 49.3502ZM36.2414 73.1597L37.483 74.1436C37.8624 73.6648 37.9327 73.0105 37.6637 72.462C37.3946 71.9135 36.8342 71.5686 36.2233 71.5756L36.2414 73.1597ZM36.2408 73.1605L34.9992 72.1766C34.6218 72.6528 34.5501 73.303 34.8146 73.85C35.079 74.3971 35.6331 74.7447 36.2408 74.7447V73.1605ZM78.7316 73.1605V74.7447C79.6065 74.7447 80.3158 74.0354 80.3158 73.1605H78.7316ZM78.7137 74.7438C78.7665 74.7444 78.8194 74.7447 78.8723 74.7447V71.5763C78.8314 71.5763 78.7905 71.5761 78.7496 71.5756L78.7137 74.7438ZM78.8723 74.7447C86.4251 74.7447 92.5565 68.64 92.5565 61.099H89.3882C89.3882 66.8807 84.6849 71.5763 78.8723 71.5763V74.7447ZM92.5565 61.099C92.5565 53.5579 86.4251 47.4533 78.8723 47.4533V50.6216C84.6849 50.6216 89.3882 55.3173 89.3882 61.099H92.5565ZM78.8723 47.4533C78.8194 47.4533 78.7665 47.4536 78.7136 47.4542L78.7496 50.6223C78.7905 50.6219 78.8314 50.6216 78.8723 50.6216V47.4533ZM77.1475 49.0375V49.0383H80.3158V49.0375H77.1475ZM75.6058 50.6216H78.7316V47.4533H75.6058V50.6216ZM77.1753 49.2522C77.2979 48.3558 77.3612 47.4413 77.3612 46.513H74.1928C74.1928 47.2973 74.1394 48.0683 74.0362 48.8228L77.1753 49.2522ZM77.3612 46.513C77.3612 35.4089 68.3321 26.4158 57.2048 26.4158V29.5842C66.5918 29.5842 74.1928 37.1682 74.1928 46.513H77.3612ZM57.2048 26.4158C46.0776 26.4158 37.0485 35.4089 37.0485 46.513H40.2168C40.2168 37.1682 47.8179 29.5842 57.2048 29.5842V26.4158ZM37.0485 46.513C37.0485 47.5589 37.1288 48.5872 37.2838 49.5918L40.415 49.1086C40.2846 48.2633 40.2168 47.3966 40.2168 46.513H37.0485ZM39.2068 47.8069C38.2072 47.5754 37.1669 47.4533 36.1 47.4533V50.6216C36.9246 50.6216 37.7251 50.7159 38.492 50.8935L39.2068 47.8069ZM36.1 47.4533C28.5472 47.4533 22.4158 53.5579 22.4158 61.099H25.5842C25.5842 55.3173 30.2875 50.6216 36.1 50.6216V47.4533ZM22.4158 61.099C22.4158 68.64 28.5472 74.7447 36.1 74.7447V71.5763C30.2875 71.5763 25.5842 66.8807 25.5842 61.099H22.4158ZM36.1 74.7447C36.1532 74.7447 36.2064 74.7444 36.2595 74.7437L36.2233 71.5756C36.1823 71.5761 36.1413 71.5763 36.1 71.5763V74.7447ZM37.4824 74.1444L37.483 74.1436L34.9998 72.1758L34.9992 72.1766L37.4824 74.1444ZM78.7316 71.5763H36.2408V74.7447H78.7316V71.5763ZM77.1475 73.1597V73.1605H80.3158V73.1597H77.1475Z" fill="url(#paint3_linear_79_376)" mask="url(#path-3-inside-1_79_376)"/>
</g>
<g filter="url(#filter2_bd_79_376)">
<mask id="path-5-inside-2_79_376" fill="white">
<path fill-rule="evenodd" clip-rule="evenodd" d="M100.698 60.6364C100.732 60.6368 100.766 60.637 100.8 60.637C105.63 60.637 109.545 56.7344 109.545 51.9202C109.545 47.1061 105.63 43.2035 100.8 43.2035C100.766 43.2035 100.732 43.2037 100.698 43.2041V43.2035H98.4394C98.521 42.607 98.5631 41.998 98.5631 41.3792C98.5631 33.9901 92.5539 28 85.1412 28C77.7285 28 71.7193 33.9901 71.7193 41.3792C71.7193 42.0764 71.7728 42.7611 71.876 43.4295C71.2376 43.2817 70.5725 43.2035 69.889 43.2035C65.0595 43.2035 61.1444 47.1061 61.1444 51.9202C61.1444 56.7344 65.0595 60.637 69.889 60.637C69.9231 60.637 69.9572 60.6368 69.9912 60.6364L69.9907 60.637H100.698V60.6364Z"/>
</mask>
<path fill-rule="evenodd" clip-rule="evenodd" d="M100.698 60.6364C100.732 60.6368 100.766 60.637 100.8 60.637C105.63 60.637 109.545 56.7344 109.545 51.9202C109.545 47.1061 105.63 43.2035 100.8 43.2035C100.766 43.2035 100.732 43.2037 100.698 43.2041V43.2035H98.4394C98.521 42.607 98.5631 41.998 98.5631 41.3792C98.5631 33.9901 92.5539 28 85.1412 28C77.7285 28 71.7193 33.9901 71.7193 41.3792C71.7193 42.0764 71.7728 42.7611 71.876 43.4295C71.2376 43.2817 70.5725 43.2035 69.889 43.2035C65.0595 43.2035 61.1444 47.1061 61.1444 51.9202C61.1444 56.7344 65.0595 60.637 69.889 60.637C69.9231 60.637 69.9572 60.6368 69.9912 60.6364L69.9907 60.637H100.698V60.6364Z" fill="url(#paint4_linear_79_376)" shape-rendering="crispEdges"/>
<path d="M100.698 60.6364L100.716 59.0523C100.293 59.0475 99.8856 59.2123 99.5846 59.5099C99.2836 59.8075 99.1142 60.2131 99.1142 60.6364H100.698ZM100.698 43.2041H99.1142C99.1142 43.6274 99.2836 44.033 99.5846 44.3306C99.8856 44.6282 100.293 44.793 100.716 44.7882L100.698 43.2041ZM100.698 43.2035H102.283C102.283 42.3286 101.573 41.6194 100.698 41.6194V43.2035ZM98.4394 43.2035L96.8698 42.9888C96.8078 43.4422 96.9449 43.9002 97.2457 44.245C97.5466 44.5898 97.9818 44.7877 98.4394 44.7877V43.2035ZM71.876 43.4295L71.5185 44.9728C72.0307 45.0915 72.5683 44.9483 72.9536 44.5907C73.3389 44.233 73.5217 43.7075 73.4416 43.188L71.876 43.4295ZM69.9912 60.6364L71.2337 61.6191C71.6125 61.1401 71.6823 60.4861 71.4131 59.938C71.1439 59.3899 70.5836 59.0453 69.9731 59.0523L69.9912 60.6364ZM69.9907 60.637L68.7482 59.6543C68.3714 60.1307 68.3002 60.7805 68.5648 61.3272C68.8295 61.8739 69.3834 62.2211 69.9907 62.2211V60.637ZM100.698 60.637V62.2211C101.573 62.2211 102.283 61.5119 102.283 60.637H100.698ZM100.68 62.2205C100.72 62.2209 100.76 62.2211 100.8 62.2211V59.0528C100.772 59.0528 100.744 59.0527 100.716 59.0523L100.68 62.2205ZM100.8 62.2211C106.5 62.2211 111.129 57.614 111.129 51.9202H107.961C107.961 55.8547 104.759 59.0528 100.8 59.0528V62.2211ZM111.129 51.9202C111.129 46.2265 106.5 41.6194 100.8 41.6194V44.7877C104.759 44.7877 107.961 47.9858 107.961 51.9202H111.129ZM100.8 41.6194C100.76 41.6194 100.72 41.6196 100.68 41.6201L100.716 44.7882C100.744 44.7878 100.772 44.7877 100.8 44.7877V41.6194ZM99.1142 43.2035V43.2041H102.283V43.2035H99.1142ZM98.4394 44.7877H100.698V41.6194H98.4394V44.7877ZM100.009 43.4182C100.1 42.7508 100.147 42.07 100.147 41.3792H96.979C96.979 41.926 96.9417 42.4633 96.8698 42.9888L100.009 43.4182ZM100.147 41.3792C100.147 33.1104 93.4241 26.4158 85.1412 26.4158V29.5842C91.6838 29.5842 96.979 34.8697 96.979 41.3792H100.147ZM85.1412 26.4158C76.8584 26.4158 70.1352 33.1104 70.1352 41.3792H73.3035C73.3035 34.8697 78.5987 29.5842 85.1412 29.5842V26.4158ZM70.1352 41.3792C70.1352 42.1575 70.1949 42.923 70.3103 43.6711L73.4416 43.188C73.3507 42.5992 73.3035 41.9952 73.3035 41.3792H70.1352ZM72.2334 41.8862C71.4787 41.7114 70.6936 41.6194 69.889 41.6194V44.7877C70.4513 44.7877 70.9966 44.852 71.5185 44.9728L72.2334 41.8862ZM69.889 41.6194C64.1894 41.6194 59.5603 46.2265 59.5603 51.9202H62.7286C62.7286 47.9858 65.9296 44.7877 69.889 44.7877V41.6194ZM59.5603 51.9202C59.5603 57.614 64.1894 62.2211 69.889 62.2211V59.0528C65.9296 59.0528 62.7286 55.8547 62.7286 51.9202H59.5603ZM69.889 62.2211C69.9291 62.2211 69.9692 62.2209 70.0093 62.2204L69.9731 59.0523C69.9451 59.0527 69.9171 59.0528 69.889 59.0528V62.2211ZM71.2333 61.6196L71.2337 61.6191L68.7486 59.6537L68.7482 59.6543L71.2333 61.6196ZM100.698 59.0528H69.9907V62.2211H100.698V59.0528ZM99.1142 60.6364V60.637H102.283V60.6364H99.1142Z" fill="url(#paint5_linear_79_376)" mask="url(#path-5-inside-2_79_376)"/>
</g>
<defs>
<filter id="filter0_bdd_79_376" x="-10.0443" y="10.5381" width="133.3" height="146.401" filterUnits="userSpaceOnUse" color-interpolation-filters="sRGB">
<feFlood flood-opacity="0" result="BackgroundImageFix"/>
<feGaussianBlur in="BackgroundImage" stdDeviation="5.54455"/>
<feComposite in2="SourceAlpha" operator="in" result="effect1_backgroundBlur_79_376"/>
<feColorMatrix in="SourceAlpha" type="matrix" values="0 0 0 0 0 0 0 0 0 0 0 0 0 0 0 0 0 0 127 0" result="hardAlpha"/>
<feOffset dx="-16.6337" dy="11.8812"/>
<feGaussianBlur stdDeviation="19.802"/>
<feComposite in2="hardAlpha" operator="out"/>
<feColorMatrix type="matrix" values="0 0 0 0 0.113438 0 0 0 0 0.148981 0 0 0 0 0.275 0 0 0 0.25 0"/>
<feBlend mode="normal" in2="effect1_backgroundBlur_79_376" result="effect2_dropShadow_79_376"/>
<feColorMatrix in="SourceAlpha" type="matrix" values="0 0 0 0 0 0 0 0 0 0 0 0 0 0 0 0 0 0 127 0" result="hardAlpha"/>
<feOffset/>
<feGaussianBlur stdDeviation="24.1584"/>
<feComposite in2="hardAlpha" operator="out"/>
<feColorMatrix type="matrix" values="0 0 0 0 1 0 0 0 0 0.721569 0 0 0 0 0.00392157 0 0 0 0.49 0"/>
<feBlend mode="normal" in2="effect2_dropShadow_79_376" result="effect3_dropShadow_79_376"/>
<feBlend mode="normal" in="SourceGraphic" in2="effect3_dropShadow_79_376" result="shape"/>
</filter>
<filter id="filter1_bd_79_376" x="-32.2376" y="0.277226" width="146.18" height="124.368" filterUnits="userSpaceOnUse" color-interpolation-filters="sRGB">
<feFlood flood-opacity="0" result="BackgroundImageFix"/>
<feGaussianBlur in="BackgroundImage" stdDeviation="5.54455"/>
<feComposite in2="SourceAlpha" operator="in" result="effect1_backgroundBlur_79_376"/>
<feColorMatrix in="SourceAlpha" type="matrix" values="0 0 0 0 0 0 0 0 0 0 0 0 0 0 0 0 0 0 127 0" result="hardAlpha"/>
<feOffset dx="-16.6337" dy="11.8812"/>
<feGaussianBlur stdDeviation="19.802"/>
<feComposite in2="hardAlpha" operator="out"/>
<feColorMatrix type="matrix" values="0 0 0 0 0.113725 0 0 0 0 0.14902 0 0 0 0 0.27451 0 0 0 0.25 0"/>
<feBlend mode="normal" in2="effect1_backgroundBlur_79_376" result="effect2_dropShadow_79_376"/>
<feBlend mode="normal" in="SourceGraphic" in2="effect2_dropShadow_79_376" result="shape"/>
</filter>
<filter id="filter2_bd_79_376" x="4.90678" y="0.277226" width="127.608" height="111.845" filterUnits="userSpaceOnUse" color-interpolation-filters="sRGB">
<feFlood flood-opacity="0" result="BackgroundImageFix"/>
<feGaussianBlur in="BackgroundImage" stdDeviation="5.54455"/>
<feComposite in2="SourceAlpha" operator="in" result="effect1_backgroundBlur_79_376"/>
<feColorMatrix in="SourceAlpha" type="matrix" values="0 0 0 0 0 0 0 0 0 0 0 0 0 0 0 0 0 0 127 0" result="hardAlpha"/>
<feOffset dx="-16.6337" dy="11.8812"/>
<feGaussianBlur stdDeviation="19.802"/>
<feComposite in2="hardAlpha" operator="out"/>
<feColorMatrix type="matrix" values="0 0 0 0 0.113438 0 0 0 0 0.148981 0 0 0 0 0.275 0 0 0 0.25 0"/>
<feBlend mode="normal" in2="effect1_backgroundBlur_79_376" result="effect2_dropShadow_79_376"/>
<feBlend mode="normal" in="SourceGraphic" in2="effect2_dropShadow_79_376" result="shape"/>
</filter>
<linearGradient id="paint0_linear_79_376" x1="64.099" y1="61.9405" x2="57.1066" y2="92.3845" gradientUnits="userSpaceOnUse">
<stop stop-color="#FF4D00"/>
<stop offset="1" stop-color="#FFB800"/>
</linearGradient>
<linearGradient id="paint1_linear_79_376" x1="54.6722" y1="91.954" x2="67.4088" y2="64.5741" gradientUnits="userSpaceOnUse">
<stop stop-color="white"/>
<stop offset="1" stop-color="white" stop-opacity="0"/>
</linearGradient>
<linearGradient id="paint2_linear_79_376" x1="57.4862" y1="13.5542" x2="57.4862" y2="79.4718" gradientUnits="userSpaceOnUse">
<stop stop-color="white"/>
<stop offset="1" stop-color="white" stop-opacity="0"/>
</linearGradient>
<linearGradient id="paint3_linear_79_376" x1="57.4862" y1="28" x2="57.4862" y2="73.1605" gradientUnits="userSpaceOnUse">
<stop stop-color="white"/>
<stop offset="1" stop-color="white" stop-opacity="0"/>
</linearGradient>
<linearGradient id="paint4_linear_79_376" x1="87.5957" y1="28.9818" x2="87.5957" y2="64.3248" gradientUnits="userSpaceOnUse">
<stop stop-color="white"/>
<stop offset="1" stop-color="white" stop-opacity="0"/>
</linearGradient>
<linearGradient id="paint5_linear_79_376" x1="85.3445" y1="28" x2="85.3445" y2="60.637" gradientUnits="userSpaceOnUse">
<stop stop-color="white"/>
<stop offset="1" stop-color="white" stop-opacity="0"/>
</linearGradient>
</defs>
</svg>
