<svg width="16" height="13" viewBox="0 0 16 13" fill="none" xmlns="http://www.w3.org/2000/svg">
<path d="M3.60398 12.2078C2.75283 12.2067 1.93449 11.8794 1.31735 11.2932C0.700198 10.7071 0.331192 9.90668 0.286259 9.05672C0.241326 8.20677 0.523883 7.37191 1.07579 6.72396C1.62769 6.076 2.40696 5.66423 3.25325 5.57338C3.00406 4.59616 3.15327 3.55998 3.66807 2.69278C4.18286 1.82558 5.02106 1.1984 5.99828 0.949217C6.97549 0.700029 8.01167 0.849244 8.87887 1.36404C9.74607 1.87883 10.3732 2.71703 10.6224 3.69425C11.2036 3.61332 11.7952 3.65285 12.3605 3.81036C12.9257 3.96788 13.4525 4.24001 13.9081 4.60984C14.3636 4.97967 14.7382 5.43928 15.0086 5.96008C15.2789 6.48088 15.4392 7.05174 15.4794 7.63714C15.5197 8.22254 15.4391 8.80996 15.2426 9.36287C15.0461 9.91578 14.738 10.4223 14.3373 10.8511C13.9367 11.2798 13.4521 11.6215 12.9137 11.8549C12.3754 12.0883 11.7947 12.2084 11.2079 12.2078H3.60398Z" fill="white"/>
</svg>
