<svg width="13" height="13" viewBox="0 0 13 13" fill="none" xmlns="http://www.w3.org/2000/svg">
<path d="M12.0083 6.20806L9.36031 5.97877L9.33109 5.82766L11.7004 4.55094C11.768 4.51488 11.8205 4.45321 11.8476 4.37802C11.8747 4.30282 11.8745 4.21953 11.847 4.14448C11.8186 4.06932 11.7643 4.00859 11.6953 3.97469C11.6263 3.94079 11.5477 3.93629 11.4757 3.9621L8.94024 4.80108C8.90604 4.74376 8.87187 4.68123 8.83767 4.62912L10.5524 2.46652C10.6044 2.4092 10.6333 2.3326 10.6333 2.25288C10.6333 2.17316 10.6044 2.09655 10.5524 2.03922C10.4979 1.98349 10.4252 1.95237 10.3497 1.95237C10.2741 1.95237 10.2015 1.98349 10.1469 2.03922L8.12431 3.8683L8.00217 3.78493L8.83278 1.09081C8.85587 1.01531 8.85159 0.933321 8.82085 0.860988C8.79011 0.788656 8.73509 0.731217 8.66663 0.69998C8.5983 0.666969 8.52069 0.66316 8.4498 0.689333C8.37891 0.715506 8.32014 0.769673 8.28556 0.840681L7.04956 3.35241L6.83463 3.28466L6.61481 0.460276C6.60867 0.380565 6.57451 0.306252 6.51928 0.252164C6.46404 0.198075 6.39174 0.16819 6.31676 0.168459C6.2421 0.16937 6.17043 0.199656 6.11543 0.253515C6.06042 0.307374 6.02604 0.381009 6.01882 0.460276L5.79888 3.28466L5.65731 3.31072L4.4603 0.783359C4.42567 0.712247 4.36756 0.657401 4.29714 0.629475C4.22672 0.601548 4.14912 0.602537 4.07935 0.632242C4.01 0.662525 3.95384 0.719564 3.92215 0.791994C3.89046 0.864424 3.88553 0.946927 3.90831 1.02307L4.69491 3.73281L4.53365 3.84225L2.51105 2.01317C2.45594 1.95859 2.38362 1.92827 2.30841 1.92827C2.23321 1.92827 2.16077 1.95859 2.10565 2.01317C2.05371 2.07049 2.02467 2.1471 2.02467 2.22682C2.02467 2.30654 2.05371 2.38315 2.10565 2.44048L3.8253 4.60306C3.79485 4.6444 3.76702 4.68793 3.74217 4.73333L1.22138 3.84225C1.14929 3.81891 1.07166 3.82459 1.00323 3.8582C0.9348 3.89181 0.88032 3.95103 0.850085 4.02463C0.820708 4.09831 0.818523 4.18109 0.843883 4.25645C0.869242 4.3318 0.920291 4.39417 0.986889 4.43109L3.34166 5.74949C3.32185 5.81584 3.3071 5.88381 3.29765 5.95272L0.649829 6.182C0.575099 6.19091 0.505938 6.2287 0.455536 6.28822C0.405134 6.34774 0.376949 6.42488 0.376221 6.50509C0.377075 6.58472 0.405401 6.66122 0.455894 6.71989C0.506386 6.77855 0.575515 6.81526 0.649829 6.82296L3.29765 7.05225L3.32699 7.20858L0.957548 8.48529C0.889598 8.51932 0.836826 8.58029 0.810367 8.65523C0.783909 8.73016 0.785834 8.81315 0.815854 8.88654C0.843333 8.96146 0.896469 9.02248 0.964466 9.0573C1.03246 9.09211 1.11026 9.09813 1.18225 9.07414L3.71784 8.22995C3.74966 8.29001 3.78557 8.34748 3.8253 8.40192L2.10565 10.5645C2.05449 10.6233 2.02598 10.7005 2.02598 10.7808C2.02598 10.861 2.05449 10.9382 2.10565 10.997C2.16128 11.0505 2.23353 11.0801 2.30841 11.0801C2.38329 11.0801 2.45542 11.0505 2.51105 10.997L4.53365 9.16273L4.65579 9.25131L3.8253 11.9402C3.80198 12.0164 3.80605 12.0992 3.83675 12.1724C3.86745 12.2456 3.9225 12.304 3.99133 12.3363C4.0604 12.3676 4.138 12.37 4.20864 12.3429C4.27928 12.3159 4.33778 12.2614 4.3724 12.1903L5.6084 9.67862C5.67087 9.6975 5.7345 9.71144 5.79888 9.72031L6.01882 12.5447C6.02489 12.6249 6.05876 12.6998 6.11387 12.7547C6.16899 12.8097 6.24133 12.8407 6.31676 12.8417C6.39252 12.8419 6.46547 12.8113 6.52083 12.7561C6.57619 12.7009 6.60985 12.6253 6.61481 12.5447L6.83463 9.72031L6.97632 9.69425L8.17321 12.2216C8.20699 12.2936 8.26505 12.3492 8.33578 12.3772C8.4065 12.4053 8.48463 12.4037 8.55428 12.3727C8.62438 12.3435 8.6812 12.2866 8.71303 12.2138C8.74486 12.141 8.74931 12.058 8.72532 11.9819L7.93872 9.27737L8.09998 9.16273L10.1225 10.997C10.1776 11.0516 10.25 11.0819 10.3252 11.0819C10.4004 11.0819 10.4729 11.0516 10.528 10.997C10.5791 10.9382 10.6075 10.861 10.6075 10.7808C10.6075 10.7005 10.5791 10.6233 10.528 10.5645L8.81322 8.40192L8.89134 8.27685L11.417 9.16273C11.4884 9.18832 11.5662 9.18366 11.6345 9.14971C11.7027 9.11575 11.756 9.0551 11.7834 8.98034C11.8128 8.90666 11.8151 8.82388 11.7897 8.74853C11.7644 8.67317 11.7133 8.6108 11.6467 8.57387L9.29686 7.2607C9.29686 7.19295 9.32621 7.1252 9.33598 7.05225L11.9838 6.82296C12.0581 6.81526 12.1271 6.77855 12.1776 6.71989C12.2281 6.66122 12.2566 6.58472 12.2574 6.50509C12.2522 6.43328 12.2249 6.3653 12.1799 6.31163C12.1349 6.25795 12.0746 6.22156 12.0083 6.20806ZM6.3461 8.00066C5.98111 7.99929 5.6314 7.84402 5.37332 7.56873C5.11524 7.29344 4.96968 6.92046 4.9684 6.53114C4.9684 6.1414 5.11353 5.76763 5.37189 5.49204C5.63025 5.21646 5.98072 5.06163 6.3461 5.06163C6.71148 5.06163 7.06194 5.21646 7.3203 5.49204C7.57866 5.76763 7.7238 6.1414 7.7238 6.53114C7.7238 6.92088 7.57866 7.29467 7.3203 7.57025C7.06194 7.84584 6.71148 8.00066 6.3461 8.00066Z" fill="white"/>
</svg>
