<svg width="16" height="15" viewBox="0 0 16 15" fill="none" xmlns="http://www.w3.org/2000/svg">
<path d="M6.24759 5.60817H1.13127C1.02128 5.60817 0.91244 5.58642 0.81089 5.54418C0.709339 5.50194 0.617133 5.44004 0.539595 5.36204C0.462057 5.28403 0.400608 5.19146 0.358977 5.08966C0.317346 4.98786 0.29635 4.87883 0.297012 4.76885C0.29635 4.65887 0.317346 4.54984 0.358977 4.44804C0.400608 4.34623 0.462057 4.25366 0.539595 4.17565C0.617133 4.09765 0.709339 4.03574 0.81089 3.9935C0.91244 3.95126 1.02128 3.92952 1.13127 3.92953H6.24759C6.49598 3.92953 6.73431 3.83119 6.91042 3.65602C7.08653 3.48085 7.18616 3.24309 7.18749 2.9947C7.18749 2.74544 7.0884 2.5064 6.91214 2.33015C6.73589 2.15389 6.49685 2.05487 6.24759 2.05487H4.6997C4.47709 2.05487 4.26359 1.96643 4.10618 1.80903C3.94878 1.65163 3.86029 1.43815 3.86029 1.21555C3.86029 0.992948 3.94878 0.779458 4.10618 0.622055C4.26359 0.464651 4.47709 0.376221 4.6997 0.376221L6.24759 0.376221C6.94118 0.377552 7.606 0.654018 8.09597 1.14494C8.58595 1.63585 8.86115 2.30111 8.86115 2.9947C8.85982 3.68743 8.58396 4.3514 8.09413 4.84124C7.6043 5.33107 6.94031 5.60684 6.24759 5.60817Z" fill="white"/>
<path d="M12.3793 8.0257H1.13127C1.02128 8.0257 0.91244 8.00396 0.81089 7.96172C0.709339 7.91947 0.617132 7.85757 0.539595 7.77956C0.462057 7.70156 0.400608 7.60899 0.358977 7.50719C0.317346 7.40539 0.29635 7.29636 0.297012 7.18637C0.29635 7.07639 0.317346 6.96736 0.358977 6.86556C0.400608 6.76376 0.462057 6.67119 0.539595 6.59319C0.617132 6.51518 0.709339 6.45328 0.81089 6.41103C0.91244 6.36879 1.02128 6.34705 1.13127 6.34705H12.3793C12.657 6.34706 12.9233 6.23708 13.1201 6.04117C13.317 5.84527 13.4283 5.57938 13.4296 5.30167C13.4283 5.02395 13.317 4.75807 13.1201 4.56216C12.9233 4.36626 12.657 4.25628 12.3793 4.25628H10.9418C10.7192 4.25628 10.5057 4.16785 10.3483 4.01045C10.1909 3.85304 10.1025 3.63955 10.1025 3.41695C10.1025 3.30673 10.1241 3.19759 10.1663 3.09576C10.2085 2.99393 10.2704 2.90141 10.3483 2.82347C10.4262 2.74553 10.5187 2.6837 10.6206 2.64152C10.7224 2.59934 10.8316 2.57764 10.9418 2.57764H12.4043C12.762 2.57764 13.1163 2.64809 13.4468 2.78499C13.7773 2.92188 14.0775 3.12253 14.3305 3.37548C14.5834 3.62843 14.7841 3.92873 14.921 4.25923C15.0579 4.58972 15.1284 4.94394 15.1284 5.30167C15.1284 5.66152 15.0571 6.0178 14.9186 6.34994C14.7801 6.68209 14.5773 6.9835 14.3216 7.23678C14.066 7.49006 13.7628 7.69019 13.4294 7.8256C13.096 7.96101 12.7391 8.02902 12.3793 8.0257Z" fill="white"/>
<path d="M7.84088 14.0569H5.71493C5.49233 14.0569 5.27883 13.9684 5.12142 13.811C4.96402 13.6536 4.87553 13.4401 4.87553 13.2175C4.87553 13.1076 4.89734 12.9987 4.93958 12.8971C4.98182 12.7956 5.04366 12.7034 5.12167 12.6258C5.19967 12.5483 5.29227 12.4869 5.39407 12.4453C5.49587 12.4037 5.60495 12.3826 5.71493 12.3832H7.84088C8.09726 12.3819 8.34264 12.2791 8.52347 12.0974C8.70429 11.9156 8.80581 11.6696 8.80581 11.4132C8.80581 11.1573 8.70419 10.9119 8.52322 10.7309C8.34226 10.5499 8.0968 10.4483 7.84088 10.4483H1.13127C0.909996 10.4483 0.697774 10.3604 0.541313 10.2039C0.384852 10.0475 0.297012 9.83525 0.297012 9.61398C0.29635 9.504 0.317346 9.39496 0.358977 9.29316C0.400608 9.19136 0.462057 9.0988 0.539595 9.02079C0.617133 8.94279 0.709339 8.88088 0.81089 8.83864C0.91244 8.7964 1.02128 8.77466 1.13127 8.77466H7.84088C8.54114 8.77466 9.21278 9.05249 9.70841 9.54718C10.204 10.0419 10.4832 10.713 10.4845 11.4132C10.4832 12.114 10.2041 12.7856 9.70865 13.2811C9.21316 13.7766 8.5416 14.0555 7.84088 14.0569Z" fill="white"/>
</svg>
